<svg width="50" height="50" viewBox="0 0 50 50" fill="none" xmlns="http://www.w3.org/2000/svg">
<circle cx="25" cy="25" r="25" fill="#C9A438"/>
<path d="M12.6933 36C11.9256 36 11.285 35.747 10.7717 35.241C10.2583 34.735 10.0011 34.103 10 33.3451V15.6549C10 14.898 10.2572 14.2666 10.7717 13.7606C11.2861 13.2546 11.9261 13.0011 12.6917 13H37.3083C38.075 13 38.715 13.2535 39.2283 13.7606C39.7417 14.2677 39.9989 14.8991 40 15.6549V33.3468C40 34.1025 39.7428 34.7339 39.2283 35.241C38.7139 35.7481 38.0739 36.0011 37.3083 36H12.6933ZM25 24.4343C25.1389 24.4343 25.2689 24.4135 25.39 24.3719C25.51 24.3302 25.6289 24.2793 25.7467 24.2191L37.795 16.4434C37.9528 16.3492 38.0556 16.2205 38.1033 16.0574C38.1511 15.8942 38.1422 15.7315 38.0767 15.5694C38.0344 15.358 37.8944 15.2047 37.6567 15.1094C37.42 15.0152 37.1906 15.0344 36.9683 15.1669L25 22.8571L13.0333 15.1686C12.8111 15.035 12.5867 15.0065 12.36 15.0831C12.1333 15.1598 11.9878 15.311 11.9233 15.5366C11.8589 15.7052 11.8506 15.8766 11.8983 16.0508C11.9461 16.2249 12.0483 16.3564 12.205 16.4451L24.2533 24.2191C24.3711 24.2793 24.49 24.3302 24.61 24.3719C24.7311 24.4124 24.8611 24.4326 25 24.4326" fill="white"/>
</svg>
