<svg width="50" height="50" viewBox="0 0 50 50" fill="none" xmlns="http://www.w3.org/2000/svg">
<circle cx="25" cy="25" r="25" fill="#C9A438"/>
<path fill-rule="evenodd" clip-rule="evenodd" d="M10 18.3333C10 16.1232 10.878 14.0036 12.4408 12.4408C14.0036 10.878 16.1232 10 18.3333 10H31.6667C33.8768 10 35.9964 10.878 37.5592 12.4408C39.122 14.0036 40 16.1232 40 18.3333V31.6667C40 33.8768 39.122 35.9964 37.5592 37.5592C35.9964 39.122 33.8768 40 31.6667 40H18.3333C16.1232 40 14.0036 39.122 12.4408 37.5592C10.878 35.9964 10 33.8768 10 31.6667V18.3333ZM18.3333 13.3333C17.0073 13.3333 15.7355 13.8601 14.7978 14.7978C13.8601 15.7355 13.3333 17.0073 13.3333 18.3333V31.6667C13.3333 32.9927 13.8601 34.2645 14.7978 35.2022C15.7355 36.1399 17.0073 36.6667 18.3333 36.6667H31.6667C32.9927 36.6667 34.2645 36.1399 35.2022 35.2022C36.1399 34.2645 36.6667 32.9927 36.6667 31.6667V18.3333C36.6667 17.0073 36.1399 15.7355 35.2022 14.7978C34.2645 13.8601 32.9927 13.3333 31.6667 13.3333H18.3333ZM30.995 17.0233C30.995 16.5813 31.1706 16.1574 31.4832 15.8448C31.7957 15.5323 32.2196 15.3567 32.6617 15.3567H32.6783C33.1204 15.3567 33.5443 15.5323 33.8568 15.8448C34.1694 16.1574 34.345 16.5813 34.345 17.0233C34.345 17.4654 34.1694 17.8893 33.8568 18.2018C33.5443 18.5144 33.1204 18.69 32.6783 18.69H32.6617C32.2196 18.69 31.7957 18.5144 31.4832 18.2018C31.1706 17.8893 30.995 17.4654 30.995 17.0233ZM25 20C23.6739 20 22.4021 20.5268 21.4645 21.4645C20.5268 22.4021 20 23.6739 20 25C20 26.3261 20.5268 27.5979 21.4645 28.5355C22.4021 29.4732 23.6739 30 25 30C26.3261 30 27.5979 29.4732 28.5355 28.5355C29.4732 27.5979 30 26.3261 30 25C30 23.6739 29.4732 22.4021 28.5355 21.4645C27.5979 20.5268 26.3261 20 25 20ZM16.6667 25C16.6667 22.7899 17.5446 20.6702 19.1074 19.1074C20.6702 17.5446 22.7899 16.6667 25 16.6667C27.2101 16.6667 29.3298 17.5446 30.8926 19.1074C32.4554 20.6702 33.3333 22.7899 33.3333 25C33.3333 27.2101 32.4554 29.3298 30.8926 30.8926C29.3298 32.4554 27.2101 33.3333 25 33.3333C22.7899 33.3333 20.6702 32.4554 19.1074 30.8926C17.5446 29.3298 16.6667 27.2101 16.6667 25Z" fill="white"/>
</svg>
