<svg width="50" height="50" viewBox="0 0 50 50" fill="none" xmlns="http://www.w3.org/2000/svg">
<circle cx="25" cy="25" r="25" fill="#C9A438"/>
<path d="M24.5 23.675C23.4107 23.675 22.3661 23.2404 21.5958 22.4668C20.8256 21.6932 20.3929 20.644 20.3929 19.55C20.3929 18.456 20.8256 17.4068 21.5958 16.6332C22.3661 15.8596 23.4107 15.425 24.5 15.425C25.5893 15.425 26.634 15.8596 27.4042 16.6332C28.1744 17.4068 28.6071 18.456 28.6071 19.55C28.6071 20.0917 28.5009 20.6281 28.2945 21.1286C28.0881 21.629 27.7856 22.0838 27.4042 22.4668C27.0228 22.8499 26.57 23.1537 26.0717 23.361C25.5734 23.5683 25.0394 23.675 24.5 23.675ZM24.5 8C21.45 8 18.5249 9.21687 16.3683 11.3829C14.2116 13.549 13 16.4867 13 19.55C13 28.2125 24.5 41 24.5 41C24.5 41 36 28.2125 36 19.55C36 16.4867 34.7884 13.549 32.6317 11.3829C30.4751 9.21687 27.55 8 24.5 8Z" fill="white"/>
</svg>
